<svg viewBox="0 0 64 64" xmlns="http://www.w3.org/2000/svg"><path d="M52.55 33.65c2.74-.63 4.62-3.09 4.62-6.34s-1.88-5.71-4.62-6.34C49.71 10.95 40.63 3.99 30.16 3.99 17.29 4 6.83 14.46 6.83 27.32c0 8.12 4.17 15.27 10.48 19.45v6.94h-.62a3.15 3.15 0 100 6.3h26.23a3.15 3.15 0 100-6.3h-.62v-6.56c4.87-2.99 8.6-7.71 10.23-13.49zm2.62-6.34c0 2.65-1.65 4.5-4.01 4.5-3.38 0-6.86-3.12-8.24-4.5 1.38-1.39 4.85-4.5 8.24-4.5 2.36 0 4.01 1.85 4.01 4.5zM20.26 38.62l8.9-8.9v12.59c-3.4-.23-6.48-1.57-8.9-3.69zm-5.1-10.31h12.59l-8.9 8.9c-2.12-2.42-3.46-5.5-3.69-8.9zm24.93-12.34l-8.93 8.93V12.3c3.4.22 6.5 1.54 8.93 3.67zm4.57 7.28a24.396 24.396 0 00-3.56 3.06h-8.53l8.95-8.95c1.45 1.66 2.52 3.66 3.14 5.89zm-15.5 1.65l-8.9-8.9c2.42-2.12 5.5-3.46 8.9-3.69V24.9zm-10.31-7.49l8.9 8.9h-12.6c.23-3.4 1.57-6.48 3.69-8.9zm12.31 12.31l8.93 8.93a14.974 14.974 0 01-8.93 3.67v-12.6zm10.36 7.53l-8.95-8.95h8.53c.57.6 1.87 1.88 3.56 3.06-.62 2.23-1.7 4.23-3.14 5.89zM8.83 27.32C8.83 15.57 18.39 6 30.15 6c9.35 0 17.47 6.09 20.26 14.91-1.41.14-2.76.62-4.01 1.28a17.024 17.024 0 00-16.25-11.98c-9.43 0-17.1 7.67-17.1 17.1s7.68 17.1 17.1 17.1c7.33 0 13.98-4.74 16.25-11.98 1.24.67 2.6 1.15 4.01 1.28-2.79 8.82-10.91 14.91-20.26 14.91-11.76 0-21.32-9.56-21.32-21.32zM24.35 53.7v-3.83c1.86.48 3.8.76 5.8.76 1.76 0 3.46-.26 5.13-.64v3.7H24.35zm-5.03-5.75c.97.51 1.99.94 3.03 1.32v4.44h-3.03v-5.75zm24.76 8.9c0 .63-.52 1.15-1.15 1.15H16.7c-.63 0-1.15-.52-1.15-1.15s.52-1.15 1.15-1.15h26.23c.63 0 1.15.52 1.15 1.15zm-3.77-3.15h-3.03v-4.22c1.05-.34 2.05-.76 3.03-1.24v5.46z"/><path d="M49.92 27.32c0 .64.52 1.15 1.15 1.15s1.15-.52 1.15-1.15-.52-1.15-1.15-1.15-1.15.52-1.15 1.15zM30.15 9.3c.64 0 1.15-.52 1.15-1.15s-.52-1.16-1.15-1.16S29 7.51 29 8.15s.52 1.15 1.15 1.15zm1.16 37.27c0-.64-.52-1.16-1.15-1.16s-1.15.52-1.15 1.16.52 1.15 1.15 1.15 1.15-.52 1.15-1.15zM12.1 27.36c0-.64-.52-1.15-1.16-1.15s-1.15.52-1.15 1.15.52 1.15 1.15 1.15 1.16-.52 1.16-1.15zM40.76 11.3c.32-.55.13-1.26-.42-1.58-.55-.32-1.26-.13-1.58.42-.32.55-.13 1.26.42 1.58.55.32 1.26.13 1.58-.42zM19.55 43.42c-.32.55-.13 1.26.42 1.58.55.32 1.26.13 1.58-.42.32-.55.13-1.26-.42-1.58-.55-.32-1.26-.13-1.58.42zm28.24-5.88c.32-.55.13-1.26-.42-1.58-.55-.32-1.26-.13-1.58.42-.32.55-.13 1.26.42 1.58.55.32 1.26.13 1.58-.42zM14.52 18.33c.32-.55.13-1.26-.42-1.58-.55-.32-1.26-.13-1.58.42-.32.55-.13 1.26.42 1.58.55.32 1.26.13 1.58-.42zm20.31-8.41c.62.16 1.25-.2 1.41-.82.16-.62-.2-1.25-.82-1.41-.62-.16-1.25.2-1.41.82-.17.62.2 1.25.82 1.41zM25.48 44.8a1.154 1.154 0 10.82 1.41c.17-.62-.2-1.25-.82-1.41zM11.3 23.5c.62.16 1.25-.2 1.41-.82.17-.62-.2-1.25-.82-1.41-.62-.16-1.25.2-1.41.82-.17.62.2 1.25.82 1.41zm33.25-8.91a1.153 1.153 0 10-1.63-1.63 1.153 1.153 0 001.63 1.63zm-28.8 25.54a1.153 1.153 0 101.63 1.63 1.153 1.153 0 00-1.63-1.63zm28.8 1.63a1.153 1.153 0 10-1.63-1.63 1.153 1.153 0 001.63 1.63zM17.38 14.59a1.153 1.153 0 10-1.63-1.63 1.153 1.153 0 001.63 1.63zm29.99 4.16a1.156 1.156 0 10-1.161-2 1.156 1.156 0 001.161 2zM12.94 35.96a1.156 1.156 0 101.16 1.999 1.156 1.156 0 00-1.16-1.999zM40.33 45a1.156 1.156 0 10-1.161-2 1.156 1.156 0 001.161 2zM21.12 11.72a1.156 1.156 0 10-1.161-2 1.156 1.156 0 001.161 2zm-8.41 20.31a1.154 1.154 0 10-2.23.59 1.154 1.154 0 002.23-.59zm22.71 15a1.154 1.154 0 10-.59-2.23 1.154 1.154 0 00.59 2.23zM25.48 9.92a1.154 1.154 0 10-.59-2.23 1.154 1.154 0 00.59 2.23z"/></svg>