<svg viewBox="0 0 64 64" xmlns="http://www.w3.org/2000/svg"><path d="M36.04 12.97c8.8 1.86 15.41 9.67 15.41 19.03 0 10.74-8.71 19.45-19.45 19.45S12.55 42.74 12.55 32c0-9.36 6.61-17.17 15.41-19.03h8.07z" fill="#8996a8" fill-rule="evenodd"/><path d="M32.73 13.21a1.026 1.026 0 10-1.45 1.452 1.026 1.026 0 001.45-1.452zm7.61 10.37c-1.51-1.51-3.4-2.58-5.46-3.1l-2.88-.9-8.33 4.01a11.83 11.83 0 00-3.47 8.33l3.49 8.31c2.2 2.22 5.19 3.47 8.31 3.49l8.34-3.46c2.21-2.21 3.46-5.21 3.46-8.34l-3.46-8.35z" fill="#e8a3c1" fill-rule="evenodd"/><path d="M32 31.93H20.2c.02 3.12 1.27 6.11 3.49 8.31L32 31.93zm0 0v11.8c3.13 0 6.13-1.25 8.34-3.46L32 31.93zm0 0h11.8a11.8 11.8 0 00-3.46-8.35L32 31.93z" fill="#f0f3f5" fill-rule="evenodd"/><path d="M32 19.59l-2.88.9c-2.06.53-3.95 1.61-5.45 3.12L32 31.94V19.6z" fill="#f0f3f5" fill-rule="evenodd"/><path d="M32.77 12.97c8.8 1.86 15.41 9.67 15.41 19.03 0 10.19-7.84 18.54-17.81 19.37.54.05 1.08.07 1.64.07 10.74 0 19.45-8.71 19.45-19.45 0-9.36-6.61-17.17-15.41-19.03h-3.27z" fill="#7a8594" fill-rule="evenodd"/><path d="M36.12 14.06c0 4.98-4.12 10.61-4.12 10.61s-4.12-5.63-4.12-10.61c0-3.12 1.84-4.42 4.12-4.42s4.12 1.3 4.12 4.42z" fill="#f5e680" fill-rule="evenodd"/><path d="M36.82 12.17C36.2 9.98 34.49 8.64 32 8.64s-4.2 1.33-4.82 3.53C18.1 14.38 11.55 22.6 11.55 32c0 11.27 9.17 20.45 20.45 20.45S52.45 43.28 52.45 32c0-9.4-6.55-17.62-15.63-19.83zM42.71 31h-8.3l5.88-5.88c1.36 1.64 2.21 3.68 2.42 5.88zm-17.57 9.27L31 34.41v8.29c-2.22-.21-4.23-1.08-5.86-2.43zM21.3 33h8.29l-5.86 5.86A10.726 10.726 0 0121.3 33zm9.7-8.01v4.59l-5.88-5.88a10.55 10.55 0 013.91-2.05c.82 1.62 1.62 2.83 1.97 3.34zm-7.3.12l5.88 5.88h-8.3c.21-2.2 1.06-4.24 2.42-5.88zm9.3 9.3l5.86 5.86A10.726 10.726 0 0133 42.7v-8.29zm7.27 4.45L34.41 33h8.29c-.21 2.22-1.08 4.23-2.43 5.86zM33 29.59V25c.35-.5 1.15-1.72 1.97-3.34 1.46.42 2.78 1.12 3.91 2.05L33 29.59zm-1-18.94c1.42 0 3.12.59 3.12 3.42 0 3.27-1.97 6.94-3.12 8.8-1.15-1.86-3.12-5.52-3.12-8.8 0-2.83 1.7-3.42 3.12-3.42zm0 39.8c-10.17 0-18.45-8.28-18.45-18.45 0-8.22 5.56-15.41 13.35-17.66.05 1.87.59 3.79 1.29 5.49C22.68 21.56 19.2 26.7 19.2 32c0 7.04 5.72 12.8 12.8 12.8S44.8 39.08 44.8 32c0-5.27-3.45-10.43-8.99-12.17.7-1.7 1.24-3.62 1.29-5.49 7.79 2.25 13.35 9.44 13.35 17.66 0 10.17-8.28 18.45-18.45 18.45zM32 58c-.55 0-1 .45-1 1s.45 1 1 1c2.01 0 4.01-.21 5.94-.63.54-.12.88-.65.77-1.19s-.65-.88-1.19-.77c-1.8.39-3.66.59-5.52.59zm18.38-7.62a26.017 26.017 0 01-8.07 5.49c-.51.22-.74.81-.52 1.32.16.38.53.6.92.6.13 0 .27-.03.4-.08 3.25-1.41 6.17-3.4 8.69-5.91a.996.996 0 10-1.41-1.41z"/><path d="M54.74 13.91c.55 0 1-.45 1-1s-.45-1-1-1h-3.65c-.55 0-1 .45-1 1v3.65c0 .55.45 1 1 1s1-.45 1-1V15.5C55.92 20.14 58 25.91 58 32c0 4.54-1.19 9.01-3.43 12.92a1.002 1.002 0 00.87 1.5c.35 0 .68-.18.87-.5 2.42-4.22 3.7-9.03 3.7-13.92 0-6.7-2.36-13.04-6.65-18.09h1.4zM26.48 6.59C28.28 6.2 30.14 6 32 6c.55 0 1-.45 1-1s-.45-1-1-1c-2.01 0-4.01.21-5.94.63-.54.12-.88.65-.77 1.19.1.47.52.79.98.79.07 0 .14 0 .21-.02zm-12.86 7.03c2.33-2.33 5.05-4.18 8.07-5.49.51-.22.74-.81.52-1.32a.998.998 0 00-1.32-.52c-3.25 1.41-6.17 3.4-8.69 5.91a.996.996 0 00.71 1.7c.26 0 .51-.1.71-.29zm-2.97 36.47h-1.4c-.55 0-1 .45-1 1s.45 1 1 1h3.65c.55 0 1-.45 1-1v-3.65c0-.55-.45-1-1-1s-1 .45-1 1v1.06C8.07 43.86 5.99 38.09 5.99 32c0-4.54 1.19-9.01 3.43-12.92.28-.48.11-1.09-.37-1.37s-1.09-.11-1.37.37C5.26 22.3 3.98 27.11 3.98 32c0 6.7 2.36 13.04 6.65 18.09zM32 46.6c-.56 0-1.03.46-1.03 1.03s.46 1.03 1.03 1.03 1.03-.46 1.03-1.03-.46-1.03-1.03-1.03zm15.62-15.63c-.56 0-1.03.46-1.03 1.03s.46 1.03 1.03 1.03 1.03-.46 1.03-1.03-.46-1.03-1.03-1.03zm-31.24 0c-.56 0-1.03.46-1.03 1.03s.46 1.03 1.03 1.03 1.03-.46 1.03-1.03-.46-1.03-1.03-1.03zm26.67-11.05c-.27 0-.53.11-.73.3-.19.19-.3.45-.3.73s.11.53.3.73c.19.19.45.3.73.3s.53-.11.73-.3c.19-.19.3-.45.3-.73s-.11-.53-.3-.73c-.19-.19-.45-.3-.73-.3zm-22.1 22.1c-.27 0-.53.11-.73.3s-.3.45-.3.73.11.53.3.73c.19.19.45.3.73.3s.53-.11.73-.3.3-.45.3-.73-.11-.53-.3-.73c-.19-.19-.45-.3-.73-.3zm22.1 0c-.27 0-.53.11-.73.3-.19.19-.3.45-.3.73s.11.53.3.73.45.3.73.3.53-.11.73-.3c.19-.19.3-.45.3-.73s-.11-.53-.3-.73c-.19-.19-.45-.3-.73-.3zm-22.1-20.04c.27 0 .53-.11.73-.3.19-.19.3-.45.3-.73s-.11-.53-.3-.73c-.19-.19-.45-.3-.73-.3s-.53.11-.73.3c-.19.19-.3.45-.3.73s.11.53.3.73.45.3.73.3zM32 14.96c.27 0 .53-.11.73-.3s.3-.45.3-.73-.11-.53-.3-.73c-.19-.19-.45-.3-.73-.3s-.53.11-.73.3c-.19.19-.3.45-.3.73s.11.53.3.73.46.3.73.3z"/></svg>